<svg xmlns="http://www.w3.org/2000/svg" viewBox="0 0 290 252"><path d="M124.9,89.7h0c0-.6,0-1.1-.1-1.7.3-1.7.5-3,1.3-4.4,0,.8-.6,3.2,1,3.5,1.4-.6,2.7-2.6,3.5-3.5-.2,1.6,0,3.3,1,.9,1.9-2.5,3.8-4.4,5.5-6.1.2.7.4,1.3.6,2-1.6,2.3-4.7,5.2-2.8,7.6,1.1,1.4,2.6.6,4.2.1.6.5,1.3,1,2.1,1.3-.9,0-2.6.8-3.6,2.1,2,1,16.6,7,14.1,2,1.2,1.5,3.4,2.1,5.1,3,.5-.9.6-1.3.7-1.8.6.7,1.3,1.3,1.8,2.1,1.3,1.9,6.5.6,5.2,2.7-.3.5-1.4.9-2,.9-.5,0-1.4-.2-1.2.6.2,1.5,1.9,5.4,3.8,5.1,1.5-.3,2.6-1.4,3-2.8l1.1-1c1.6.8,2.2,2.8,4.1,3.4,1.4.4,2.6-.2,3.6-1.1.5-.5-.2-1.4-.1-2.2.3-1.2,1-2.4.3-3.4-2.5-3.5-5.2-.7-8.3-3.3-.2-1.7-1.7-2.7-2.9-4,.5-.2.9-.4,1.1-.9,2.6,0,6.3.6,8.3-1.6,1.2-1.2.7-4.4-.4-5.1-.9-.6-2.6,0-3.7,0l3.6-1.9c.4-.2-.2-1.3-.4-1.4,1.5-2.9-1.6-15.8,1.8-16,2.8-.2,2.9,11.3,4.6,14.3l21.9-4.6c1.8-2.5,1.4-10.1,4.8-9.4,2.8.6,1.1,5.2,1.9,7.5,2-.3,3.8-1.2,5.3.4-1.7,3.5-3.8,5.6-6.4,8.2-1.2,15.4-3.3,30.4-2.7,46.8,7.4-4.4,11.9-10.7,16.6-17.1l23.8-32.2c.8-1.1,2-1.7,2.7-1.2,1.1.7,1.1,2,.4,3.2l-19.4,32.4c-4.6,7.7-9,14.9-11.9,23.5,3.9-.6,6.4-2.9,9.2-4.9,12-8.4,23-17.5,34.6-26.6,1.4-1.1,2.9-1.4,4-1.4,1,0,4,1.4,2.9,2.5l-42.6,43.5,39.4-12.9c5.2-1.7,10.2-4.4,16.3-3.1l-45.9,30.4c1.5,2.9,4.8,3.6,7.7,4.4l26.7,7.4c-5,2.5-10.2,1.8-15.5,2l-49,1.4c5.8,16.3,35.6,46.9,47.4,56.1,1.3,1,3.7.5,3.8,2.4,1.1,13.2-27.5-16.2-30.1-19.1l-33.8-36.5-68.1,39.7c-1.5.9-3.2,1.1-3.8.4-1-1.2-.4-2.6.7-3.5l36.3-29.1c-5.3-.5-9.9,1.6-14.7,3.2l-36.9,11.6c-1.1.4-2.5-.4-2.5-1.1.2-3.8,40.6-18.5,47.1-24.3-9.6-1.6-18.8-5.2-27.7-4.3-2.9.3-21.4,9.6-34.8-.3-.2-.5.1-1.3.5-1.2.6,0,1.2.3,1.5.4,0,0,0,0,.1,0,1.4.8,4,1.3,5.4.3-.8-4.9-14.3-10.1-14.1-6.7,0,.6.4,1.2.7,2-.3.4-.6.7-1,1-1.7-.5-3.9-1.8-6.2-2.2-5.7,6-27.3,43.5-36,36.1.6-4.3,4.6-5.2,7-7.6,9.6-9.3,16.7-20.6,24.6-31-2.9-2.4-5.5-3.5-7.8-3.9l.2-1.4c1.1.2,2.3.2,3.5-.2-2.7-3.3-5.7-2.1-8.2-3.4l1.4-1.8,1.3-4c.7.9.8,2.3,1.5,3.7,1.8-.1,1.7-1.7,2.5-2.5,2.6,3.1,3.3,7.7,8.4,10.1-.3-1.4-.7-2.8-1.3-4.1l2.5-.7c.2.4.4.9.6,1.3l24.1-34,17.3-22.8c1-1.3-.4-4.9,2.9-5.1-.7-4.4-.6-8.9-1.5-12.8l1,.2,2.8,6.4c1.1-5.4,1.4-11-2.4-15.2-.4.2-.6.5-.6.7-.3-.3-.7-.6-.3-1.1.2-.2.8-.6.9-1.1.1-.9-1-1.4-1.3-2.1,1.6,0,2.2-1.6,2-3.1.8,1.1,1.5,3.2,2.2,4.3-2.2.6-.4,2.7,0,3.8.6,1.6,1.4,3,3.1,2.8-3.1,2.5-2.5,7.2-1.6,11,.1-.6.2-1.1.3-1.6,0,.4.2.7.2.8ZM201.4,80.9c1.1-.4,1.2-3.1.5-3.1-4.8.8-9.9.7-14.1,2.9,4.3,1.2,9,1.8,13.6.2ZM196.6,90.5c1.7-.2,4.3-3.6,3.7-5.5-.7-2.1-4.1-1.5-5.4-1.1-1.2.3-1.2,3-1,4.4.1.9,1,2.4,2.7,2.1ZM190.4,125.9c4.6-11.7,6-22.1,8.6-33-6.7,5.4-3.2,6.2-13.4,12.8.8,6.7,1.6,14.5,4.8,20.2ZM193.4,92.3c.3-3.1-3.6-3.1-5-1.7-1,.9-3.4,1-3.3,3.4,2.1,1.2,8.1,1.4,8.3-1.6ZM183.3,91.6c3.9-4.2,10.2-3.1,8.1-7.1-1.4-2.7-7,2-8.8,4-.6.7-.1,2.2.7,3.1ZM191.4,98.1c.5-1.2-.6-1.5-1.2-1.4-2.1.1-3.2,1.5-3.3,3.8-.1,1.6,4-.9,4.6-2.3ZM177.1,127.7c1.8-7.3.6-13.2.3-19.8l-11.8,1.1c3.4,6.5,6.1,12.5,11.5,18.6ZM176.2,93.5c.1-.7.3-1.8-.3-2-1.1-.4-5.9.6-5,2,.5.7.9,1.4,2.3,1.7,2.1.5,2.8-.6,3-1.7ZM165,136.7c-1.1-10.4-5.5-19-8.2-28.4-3.4-.6-5.6-1.8-8-2.8.5-.7,1.3-1.1,2.1-1.3.8-.2,2.4.3,2.8-.6,1.8-3.8-14.7-9.6-17.9-8.6.6,2.3,1.9,3.2,3,3.9-.6.4-1.3.6-2,.8-2.9-.3-5.2-3.3-8.4-3.3-2,0-3.6,2.8-4.8,4.9,13.6,11.9,26.1,24.3,41.4,35.3ZM154.3,148l-33.8-43.3c-7.1,7.9-12.6,16-18.1,24.5l32.4,12.6c3.6-.4,6.8-1.5,10.5-.7l-.3,4.4c3.2,1,6,3.2,9.3,2.4ZM131.5,162.6c4.7,2.5,11.1.7,16.8.8-.7-1.3-12.2-9.6-12.8-7.2-.3-.3-.7-.6-.9-1-.6-1.9-2.8-2.7-4.8-1.9-1.7.7-1.4,3.3-1.6,5l-1.2,1c-.4-.7-.7-1.4-.9-2.1.3-.7.8-1.9.7-2.6-.6-5.4-12,7.6-11.7,8.5,1.9.5,4.4-.6,5.3-1.6.2.3.3.7.5,1,1.7,2.1,5,1.5,7.1,0,.3-.2.5-.5.7-.9,0,0,0,0,0,0,.2-.3.4-.6.5-.8,0,0,0,0,0,0,.2-.2.3-.4.5-.5.3,0,.6.1.9,0,0,0,0,0,0,0,.6.5.7,1.7.8,2.1ZM119.4,147.9c3.1,1.4,6,2.8,9.8,2.6-2.5-3.6-6.1-3.5-9.8-2.6ZM100.9,147.9l18.7-3.9-19.1-12.1-16.3,24,16.7-8ZM120.2,154.4c-2.8-3.3-7.1-7.4-11-5.2-3.4,2-3,7.5-2.3,10.9,5,.1,9.4-1.1,13.3-5.7ZM104.4,156.9c1-2.8,1-4.1-.4-5.2-1.6-1.3-3-1.1-5,.1-2.9,1.7-6,6.7-2.9,9.5,3.1,2.8,7.2-1,8.3-4.4ZM110.8,171.8c-3.9-.6-14.2-3.4-13.2,2.2.7,4.2,10.3,2.5,13.2-2.2ZM94.4,162.3c-3.1-4.8-8.8-2.3-11.4.2,3.8,2.4,8,2,11.4-.2Z" fill="#000000" fill-rule="evenodd" /><path d="M234.8,28.5c1.3.6,3.5,3.8,2,5-2.9,2.3-6.8-.9-10.9-.9.5,2.6,3.2,6.2.2,7.7-2.9,1.4-5.6-1.9-7.9-3.5-1.3,2-3,7.1-5.8,5.4-.5-.3-1-.9-1.3-1.5-.2-1.2-.2-2.5-.2-3.7-.4,0-.8-.1-1.2,0v-2.6c.3-.1.7-.3,1.1-.7-.4-2.6-.8-5-.6-7.3,1.5-4.3,6.7-12.3,9.6-8.7,1.9,2.3-.9,7.6-1.9,8.9-1.1,1.5-2.8,2.6-3,5,1.5-.2,2.3-1.4,3.1-2.2.1,0,.3-.2.5-.5,6.1-1.4,4.1-11.9,9.4-10.7,2,.5,3,2.5,2.3,4.8-.6,2.1-2.6,3.4-2.2,5.4,2.7-.6,5.1-.8,6.7,0Z" fill="#000000" fill-rule="evenodd" /><path d="M218.5,28.9c-.2.1-.3.3-.5.5-.2,0-.3,0-.3-.3.2,0,.5,0,.8-.1Z" fill="#000000" fill-rule="evenodd" /><path d="M209.7,34.4v2.6c-.7,0-1.3.3-1.4,1.2,1.1,1.4,1,2.5.9,3.6-.5,1-1.4,1.8-2.6,2.2-.9.3-2-.6-2.2-1.5-.2-.6.2-1.9-.4-2.6-4.5,0,0,8-3.8,8.9-3.7.9-3.3-8.8-6.6-3.3-.3.5,2.4,1.7.2,5.3-.6,1-2.1,1-2.8.1-.6-.7-.9-2.1-1.7-3.8-14.3,7.9-27.8,17.4-40.4,28.4.1,1.1.4,2.1.8,3.1l-3,.9c-.3-.5-.6-.9-1-1.4l-10.7,9.9,1.1-2.8c2.4-2.1,3-3.7,1.7-4.8.8-1.3,2.6-3.2,3.5-4.4,12.5-9.7,24.7-20.7,39.5-28.6-3.3-5-3.8-10,0-13.8,1.1-1.2,2.5-1.7,3.7-1.2,1,.4,1.9,1.3,2,2.8l.3,7.7c.5,1.1,3.3-.4,4.2-1.1,1.8-1.4-.4-8.5,3.2-7,3.2,1.3.9,5.6,3.7,3.5,1.2-.9-2.4-2.7-.7-6.2.6-1.3,2.1-2.1,3.7-2.2,1.4,1.9,1.4,4.3,1,6.9,2.3-.1,3.8-.9,5.3-1.9,0,0,.1,0,.2-.1,0,0,0,0,0,0,.6-.3,1.5-.2,2.3-.5Z" fill="#000000" fill-rule="evenodd" /><path d="M208.2,28.9c0,1.8-.3,3.6-1.1,5.2-1.6.7-3,.3-3.8-1.3-.6-1.2-1-2.7-.6-4.1.4-1.3,1.4-2.8,2.8-2.8,1.7,0,2.3,1.6,2.7,3Z" fill="#000000" fill-rule="evenodd" /><path d="M177.2,98.9c.7,1,0,2.2-.3,3.4,0-1.2-.4-2.2-1.1-3,0,0-.2-.2-.2-.3-.4-.5-.9-.9-1.6-1.2-1.4-.8-3.1-1.2-4.7-1-.3-.3-.5-.7-.4-1.2,3.1,2.6,5.8-.2,8.3,3.3Z" fill="#000000" fill-rule="evenodd" /><path d="M176.9,102.2c-2.2.5-1.6-3-2.8-3.8-2.1-1.4-5.2-.6-7.9.4,0-.2-.2-.3-.3-.5.7-.4,1.3-.9,1.8-1.3.4-.1.9-.2,1.4-.3,0,0,.2,0,.2,0,.6.6,2,.8,4.2.7.2,0,.3.1.5.2.6.3,1.1.7,1.6,1.2,0,0,.2.2.2.3.6.8.9,1.8,1.1,3Z" fill="#000000" fill-rule="evenodd" /><path d="M176.9,102.2c-.2-1.2-.6-2.2-1.1-3,.7.8,1.1,1.9,1.1,3Z" fill="#000000" fill-rule="evenodd" /><path d="M174.5,80.6c.2.2.8,1.2.4,1.4l-3.6,1.9-.6-1.3c2-.6,3.2-1.3,3.8-2Z" fill="#000000" fill-rule="evenodd" /><path d="M175.5,98.9c-.5-.5-1-.9-1.6-1.2.6.3,1.2.7,1.6,1.2Z" fill="#000000" fill-rule="evenodd" /><path d="M173.9,97.7c-.2,0-.3-.2-.5-.2-2.1,0-3.5-.2-4.2-.7,1.6-.2,3.3.2,4.7,1Z" fill="#000000" fill-rule="evenodd" /><path d="M174.5,80.6c-.6.8-1.8,1.5-3.8,2l.6,1.3c-1.3.7-2.9.5-3.7,1.4-1.3,1.4-1,3.8-.5,5.3-1.6-1.1-2.3-.6-1.1.9-1.4.6-3,0-4.4.3.6-1.4,1.8-2.2,3.1-3.6-3.3-2.3-7-1.1-10,.2.6,2.3,1.9,3.4,3,4.8v1.4c-.7-.1-1.1-.2-1.4-.2,0-1.2-3.5-2.3-4.6-1-.9-1.2-.7-4-3.2-4.2-2.6-.2-5.1.1-7.3.2.2-1.1-.5-1.6-2.1-1.3l9.3-2.8c-.3-2-.7-4-1.9-5.9l3-.9c.8,2.2,2.2,4,3.7,5.8,7.4-1.3,14.2-3.4,21.3-3.8Z" fill="#000000" fill-rule="evenodd" /><path d="M169.3,102.2l-1.1,1c-.6-.7-.8-1.1-.8-1.4.5.2,1.2.3,1.8.4Z" fill="#000000" fill-rule="evenodd" /><path d="M169.2,96.7c0,0-.2,0-.2,0-.5,0-1,.2-1.4.3.5-.5.9-1,1.2-1.5,0,.5,0,.9.4,1.2Z" fill="#000000" fill-rule="evenodd" /><path d="M168.2,103.2l-5.6-2.9,3.1.8s0,0,0-.1c.4.3,1,.6,1.7.8,0,.2.2.7.8,1.4Z" fill="#000000" fill-rule="evenodd" /><path d="M169.3,102.2c-1.1-.6-1.7-.7-1.8-.4-.7-.2-1.3-.5-1.7-.8.3-.5.5-1,.5-1.5,1,1.1,2,2.1,3,2.6Z" fill="#000000" fill-rule="evenodd" /><path d="M167.5,101.9c.1-.3.8-.2,1.8.4-.7,0-1.3-.2-1.8-.4Z" fill="#000000" fill-rule="evenodd" /><path d="M168.8,95.6c-.3.5-.7,1-1.2,1.5-.9.3-1.6.6-2.1,1-1-.8-3-1.2-6.1-1.3,3.2-.1,6.4,0,9.4-1.2Z" fill="#000000" fill-rule="evenodd" /><path d="M165.7,99c.2.2.4.4.5.6,0,.4-.2.9-.5,1.5-1-.8-1.3-1.7-.6-2.6,0,0,.2,0,.2.2.2,0,.3-.2.5-.3.1.2.2.3.3.5-.1,0-.3.1-.4.2Z" fill="#000000" fill-rule="evenodd" /><path d="M167.1,90.6c-.2.5-.6.8-1.1.9-1.2-1.6-.5-2.1,1.1-.9Z" fill="#000000" fill-rule="evenodd" /><path d="M167.6,97c-.5.4-1.1.9-1.8,1.3,0-.1-.2-.2-.3-.3.5-.4,1.1-.7,2.1-1Z" fill="#000000" fill-rule="evenodd" /><path d="M165.9,98.3c-.2,0-.3.2-.5.3,0,0-.2-.1-.2-.2.1-.1.2-.3.4-.4.1,0,.2.2.3.3Z" fill="#000000" fill-rule="evenodd" /><path d="M165.8,101s0,0,0,.1l-3.1-.8h0c.5,0,1.7-.5,2-.9,1.4-2.1-3.9-.8-5.2-2.7,2.4.1,4.3.7,5.7,1.7-.6.9-.4,1.8.6,2.6Z" fill="#000000" fill-rule="evenodd" /><path d="M165.6,98c-.2.1-.3.3-.4.4-1.4-1-3.4-1.6-5.7-1.7,3.1,0,5.1.5,6.1,1.3Z" fill="#000000" fill-rule="evenodd" /><path d="M153.4,17.2c1.2-.8,5.4-1.8,4.6.7-2,6.7-6.5,12.4-7.1,19.6-1.2,15.6-3.3,19.4-7.5,28.9l-2.4-.4c.6-1.2,1-2.5,1.4-4-1.8-.4-2.7,1.2-3.5,2.3l-.9-1c.2-1.3,1.3-2.4,1-4.4-3.6-.2-6.9,1.7-8.3,4.9l-2.4-.9c1.5-2.4,2.3-14.1-.5-15.5-2-1-2.4,1.6-2.2,5h-1.8c0-.7-.6-1.5-2.3-2.9-4.3,6.4-4.6,15.2-2.7,22.3-1.1,1.8-1.6,5.2.8,4.5.9,2.5-.3,5.4,0,7.9-.2-1-.6-1.1-1-.2-1.5-6.1-2.3-12.6-3.3-19.3-1.3-8.3,2-14.9,7.8-20.5,9.9-9.5,18.9-19.2,30.5-26.8ZM144.4,36.3c3.1,2.4,7.6-9.9,7.1-11.8-4.1,3-6.6,7.5-7.1,11.8-3.3.6-4.7,4.6-5.3,8.3,3.1-1.8,4.9-4.4,5.3-8.3ZM142.8,57.5c2.3-.6,3-13.1,3.2-16.9-1.7,1.5-4.5,3.6-4.7,5.6l-.8,8.7c-.1,1.4,1.6,2.8,2.3,2.6ZM136.5,35.8c4.4,0,5.7-3.9,8.6-7.9-3.2,1.4-7.4,3.3-8.6,7.9ZM132.6,57.6c4.8-1.4,7.4-5.2,6.7-9.5-4.7,1.3-6.9,5.1-6.7,9.5ZM133,49c3.5-3.2,4.4-6.8,3.4-10.9-3.9,2-4.3,7.1-3.4,10.9ZM129.9,42.9c.4-1,1.1-1.7.9-3.1-1.6.9-2.4,2.1-3.7,4.1,1.6.6,2.4,0,2.8-1Z" fill="#000000" fill-rule="evenodd" /><path d="M157.6,94.7c-.2.4-.2.9-.7,1.8-1.7-.9-3.9-1.5-5.1-3,1.1-1.3,4.5-.2,4.6,1-1.2,0-.1.5,0,.4,0-.1,0-.2,0-.4.3,0,.7,0,1.3.2Z" fill="#000000" fill-rule="evenodd" /><path d="M156.3,94.5c0,.1,0,.2,0,.4,0,0-1.1-.5,0-.4Z" fill="#000000" fill-rule="evenodd" /><path d="M150.9,104.2c-.8.2-1.6.6-2.1,1.3-.5-.7-1.5-1.4-2.6-2.1,1.7.5,3.4.8,4.7.8Z" fill="#000000" fill-rule="evenodd" /><path d="M150.9,104.2c-1.3,0-3-.3-4.7-.8-1.8-1.1-4.1-2.1-6.1-2.9-.6-.5-1.1-1-1.4-1.6,3.8,2.5,8.4,3.1,12.2,5.3Z" fill="#000000" fill-rule="evenodd" /><path d="M146.2,103.4c1.1.7,2.1,1.4,2.6,2.1-4-1.6-8.1-2.9-12.1-5.8.7,0,1.3,0,2,.2.4.2.9.4,1.4.6,1.5,1.3,3.8,2.3,6.1,2.9Z" fill="#000000" fill-rule="evenodd" /><path d="M140.2,100.5c1.9.8,4.2,1.8,6.1,2.9-2.2-.6-4.5-1.6-6.1-2.9Z" fill="#000000" fill-rule="evenodd" /><path d="M141.1,65.9l2.4.4c-1,2.2-2.1,4.7-3.3,7.7-.7,1.2-2,3.4-3,4.4l-1.5-.5c-1.6,2.1-3.2,4.1-5,5.7l3.9-7.7c-5.6-.6-6.6,4.4-8.4,7.7-.5,0-.9.2-1.1.5.2-1.4.5-2.8,1-4.6,0-2.6-1.8-4.5-3.1-6.6.9-1,1.3-2.1,1-2.9.8,1.5,2,2.9,3.4,4.2-.1-4.9-1.6-9.1-3-14.2-1.3-4.8-4.2,2.3-.8,9.3-.5-.6-1.5-.9-2.9-.7-2.6-12.2,3-13.8,3-16.2h1.8c.3,4,1.7,9.2,2.7,10.4l2.4.9c-.5,1.2-.8,2.6-.7,4.1,1.3.6,2.4-.3,3.4-.2.6,0,.9.8,1.2,1.2-.3,1.3,0,2.7,1.8,3.8,1.9-1.8,3.5-4,4.7-6.7Z" fill="#000000" fill-rule="evenodd" /><path d="M139.1,88.1c1.6-.2,2.2.2,2.1,1.3-.7-.4-1.5-.8-2.1-1.3Z" fill="#000000" fill-rule="evenodd" /><path d="M140.2,100.5c-.5-.2-1-.4-1.4-.6-.6-.2-1.3-.3-2-.2.7-.2,1.4-.4,2-.8.3.6.8,1.1,1.4,1.6Z" fill="#000000" fill-rule="evenodd" /><path d="M138,63.3l.9,1c-.6.1-1.1.4-1.7.8.4-.6.6-1.2.8-1.8Z" fill="#000000" fill-rule="evenodd" /><path d="M137.8,80.4c1.3,1.1.7,2.7-1.7,4.8l-1.1,2.8c-1.9-2.4,1.3-5.3,2.8-7.6Z" fill="#000000" fill-rule="evenodd" /><path d="M138.9,64.2c-1.3,1.7-2.3,3.8-4.4,4.5.1-.6.4-1.2.8-1.8.7-.5,1.4-1.2,1.9-1.9.6-.4,1.1-.7,1.7-.8Z" fill="#000000" fill-rule="evenodd" /><path d="M138,63.3c-.1.6-.4,1.2-.8,1.8-.7.5-1.4,1.2-1.9,1.9-.6.4-1.3.6-2,.6,1.3-1.6,2.9-3,4.6-4.3Z" fill="#000000" fill-rule="evenodd" /><path d="M135.6,77.9l1.5.5c-1.7,1.6-3.6,3.5-5.5,6.1-1,2.5-1.3.8-1-.9,1.7-1.7,3.4-3.6,5-5.7Z" fill="#000000" fill-rule="evenodd" /><path d="M135.4,67c.5-.7,1.1-1.4,1.9-1.9-.5.8-1.1,1.5-1.9,1.9Z" fill="#000000" fill-rule="evenodd" /><path d="M134.7,155.1c.1.4.6.7.9,1-.5.3-.9.6-1.4,1,.3-.6.5-1.3.5-2.1Z" fill="#000000" fill-rule="evenodd" /><path d="M135.4,67c-.4.6-.7,1.2-.8,1.8-.3-.4-.6-1.2-1.2-1.2.7,0,1.3-.1,2-.6Z" fill="#000000" fill-rule="evenodd" /><path d="M134.2,157.2c.4-.4.9-.8,1.4-1-1.3,2.1-2,4.8-4,6.4,0-1,.2-1.9.7-2.9.8-.6,1.5-1.4,1.9-2.5Z" fill="#000000" fill-rule="evenodd" /><path d="M134.7,155.1c0,.7-.2,1.4-.5,2.1-.8.7-1.4,1.6-1.9,2.5-.5.4-1,.6-1.5.7,0,0,0,0,0,0-.2-.2-.5-.2-.8,0,0,0,0,0,0,0,0,0-.2,0-.3,0,.1-.6-.2-1-1-1-.1-.3-.2-.6-.3-1,.8.7,2.4,1.8,3.5.6,1.2-1.3,1.7-2.8,2.8-3.7Z" fill="#000000" fill-rule="evenodd" /><path d="M134.2,157.2c-.4,1.1-1.2,1.9-1.9,2.5.5-.9,1.2-1.8,1.9-2.5Z" fill="#000000" fill-rule="evenodd" /><path d="M132.3,159.7c-.5.9-.7,1.9-.7,2.9-.2-.4-.3-1.7-.8-2.1.5,0,1-.3,1.5-.7Z" fill="#000000" fill-rule="evenodd" /><path d="M129.6,160.3c0,0,.2,0,.3,0-.2,0-.3.3-.5.5.1-.2.2-.4.2-.6Z" fill="#000000" fill-rule="evenodd" /><path d="M128.6,159.2c.8,0,1.1.4,1,1-.4-.2-.7-.5-1-1Z" fill="#000000" fill-rule="evenodd" /><path d="M129.6,160.3c0,.2-.1.4-.2.6,0,0,0,0,0,0-.2.2-.3.5-.5.8,0,0,0,0,0,0-.2.3-.5.6-.7.9,0-1.2-.4-2.3-1-3.3.6,0,1.1-.1,1.5,0,.2.5.6.9,1,1Z" fill="#000000" fill-rule="evenodd" /><path d="M128.6,159.2c-.4,0-.9,0-1.5,0l1.2-1c0,.4.2.7.3,1Z" fill="#000000" fill-rule="evenodd" /><path d="M128,162.6c.3-.3.5-.6.7-.9-.2.4-.5.7-.7.9Z" fill="#000000" fill-rule="evenodd" /><path d="M126.1,157.2c.3.7.6,1.4.9,2.1-.5-.7-1.3-.8-2.1-.5.5-.5.9-1,1.2-1.5Z" fill="#000000" fill-rule="evenodd" /><path d="M124.9,158.7c.9-.3,1.6-.2,2.1.5-2.4.4-4.3,1.8-6.2,3.2.2-.6.6-1.3,1.2-1.9,1-.5,2-1.2,2.8-1.9Z" fill="#000000" fill-rule="evenodd" /><path d="M126.1,83.6c-.8,1.4-1,2.7-1.3,4.4,0-1.5,0-2.7.1-3.9.3-.3.6-.5,1.1-.5Z" fill="#000000" fill-rule="evenodd" /><path d="M126.1,157.2c-.3.5-.7,1-1.2,1.5-1,.3-2,1-2.8,1.9-.6.3-1.2.6-1.7.9,1.6-1.8,3.1-3.7,5.7-4.3Z" fill="#000000" fill-rule="evenodd" /><path d="M126,79.5c-.5,1.8-.8,3.3-1,4.6-1,1-.6,3.5-.3,4.8,0,.5-.2,1-.3,1.6-.9-3.7-1.5-8.5,1.6-11Z" fill="#000000" fill-rule="evenodd" /><path d="M124.9,89.6h0c0,0-.2-.4-.2-.8,0-.3,0-.6.1-.9,0,.5,0,1.1.1,1.7Z" fill="#000000" fill-rule="evenodd" /><path d="M125,84.1c-.2,1.2-.2,2.4-.1,3.9,0,.3,0,.6-.1.9-.3-1.3-.7-3.7.3-4.8Z" fill="#000000" fill-rule="evenodd" /><path d="M124.9,158.7c-.8.7-1.8,1.4-2.8,1.9.8-.8,1.8-1.6,2.8-1.9Z" fill="#000000" fill-rule="evenodd" /><path d="M123.9,70c.2.8,0,1.9-1,2.9-.8-1.2-1.4-3.2-2.2-4.3,1.4-.2,2.4,0,2.9.7.1.2.2.5.4.7Z" fill="#000000" fill-rule="evenodd" /><path d="M120.4,161.5c.5-.3,1.1-.6,1.7-.9-.6.6-1,1.3-1.2,1.9-.2-.3-.3-.7-.5-1Z" fill="#000000" fill-rule="evenodd" /><path d="M118.6,71.6c.2.7,1.4,1.2,1.3,2.1,0,.5-.7.9-.9,1.1-.4.5,0,.8.3,1.1,0,0,0,0,0,0,0,0,0,.2.1.2-2.4.7-2-2.7-.8-4.5Z" fill="#000000" fill-rule="evenodd" /><path d="M119.4,84l-1-.2c.4-.9.7-.8,1,.2Z" fill="#000000" fill-rule="evenodd" /><path d="M108.2,75.1c.5,1.2.1,2.7-.9,3.7-4.5,4.2-4.5,9.7-6.2,15.1-.9,2.8-3.6,4.5-3.7,8.2,0,5.4-3.8,10.1-7.9,13.2-4.9,3.8-27.6,19.4-23.9,25.3,3.4,5.4,6.6,10.2,9.5,16.5l-2.5.7c-1.7-3.9-4.7-7.4-7.9-9.7-1.2.1-2.2.7-3.2,1.3-.5-.2-1-.5-1.4-.9.2-.3.2-.5.3-.8.4-.9,1-1.6,1.6-2.3,0,0,.2-.2.3-.3-1.6-5-7.7-9-13-7.3,2.8,2.2,4.9,2.4,6.5,4.2-.7.7-1.7,1-3.2,1.3-.5,1.4.2,1.9,1.3,2,1.6,3.1,3,6.4,6.2,9.3l-1.4,1.8c-1.3,0-1.8.2-1.9,2.2,2.3,0,4.4,1,6.6,1.4l-.2,1.4c-3.8-.6-7.1.7-10.9,1.5l-.3-1.8c1.8-.3,3.5-1,2.9-2.9-.3-1-1.3-1.5-2.1-2.2,1-.3,2.4-1.5,1.5-2.5-1.5-1.7-4.6-1.5-6.2-.6-1.2.6-3.2,1.8-2.4,3.5l-2.6.3c-.8-2.7-5.9-5.1-9.7-5.8l.4-2.1c1.3.4,2.7.4,3.9,0-2.5-2.6-4.8-3.4-7.5-1.7l-1.4.2c-.9-.8-1.9-1.3-2.9-1.7l.2-1c2.7.5,6.4-.8,6.5-2.8-1.5-2.3-5.2-1.3-7.5.2l-1.3-1.9c-1.5-2.3-3.2-4.1-2.6-6.1.4-1.4,1.9-2.6,3.5-3.6,14.2-8.1,28.3-3.6,38-11.6-10.9-26.7,6.6-20-6.1-35.5-3.7-4.5-2.9-12.7-5-18.3-1.4-3.5-3.8-5.9-4.9-10.1,2.6-3.6,16.5,8.2,18.3,9.6,4.6,3.7,8.9,6.4,12.7,11l5.5,6.5c3.9,4.6,6.5,9.5,6.6,15.9,5.1-1.2,6.5-4.8,6.6-9.1,0-1.4,1.9-21.1,5.8-17.9.6.5.8,2.8,1.6,3.1,1.5.5,3.6-1,4.3.9ZM80.6,108.4c5.5,6-8.8-15.1-8.1-10.5,1.8,4.2,4.9,7.1,7,10.8-1.8,2.1-5.5,1.2-6.7,4.9,3.7,0,5.4-3.3,7.7-5.2ZM81.3,100.7c1.4-4.9-17-19.1-19.3-17,2.3,3.6,6,4.4,8.9,6.5,4.1,3,5.7,7.8,10.4,10.4ZM72.1,79.4c2.5,1.5,3.2,6.5,6.7,5.3-4.1-6.6-10.1-9.2-15.7-12.3-1.4-2-3.5-3.9-6.1-2l15.2,9ZM52.7,149.3c-.6-4.7-3.2-6.7-5.2-9.7-1.3,0-1.5.1-1.9.5-2.8,2.8,4,8.8,7.1,9.1ZM48.9,130.2c.9-1.3-.3-2.6-1.7-1.9-2.6,1.4-3.9,4.6-2.9,6.9,2.5-.8,3.1-2.8,4.6-5ZM39.7,150.6c.6,2.7,8.3,2.4,7.9-.3-.7-2.5-8-2.1-7.9.3ZM43,145.1c.6-2.3-2.1-3.3-3.2-3.7-1.2-.4-4.8-.7-4.4,1.9s6.9,4.5,7.6,1.8ZM36.8,137.5c2.3-2.5,2.8-5.8,2.1-8.8-3.2,2.2-4.2,5.8-2.1,8.8ZM28.7,137.8c1.7-1.5,2.3-3.2,1.9-5.3-2.1.9-2.9,3.2-1.9,5.3Z" fill="#000000" fill-rule="evenodd" /><path d="M90.5,173.4s0,0-.1,0c-2.8-1.3-5.1-1.8-2,.8-2.1-1.6-5.4-1.6-6.8-4.2,1.1.4,1.4,0,1-1l7.9,4.4Z" fill="#000000" fill-rule="evenodd" /><path d="M90.4,173.4c-.4-.1-.9-.3-1.5-.4-.3,0-.6.8-.5,1.2-3.1-2.6-.8-2.1,2-.8Z" fill="#000000" fill-rule="evenodd" /><path d="M82.6,169c.4,1.1,0,1.4-1,1,.4-.3.8-.6,1-1Z" fill="#000000" fill-rule="evenodd" /><path d="M80.2,108.5h.4c0,0-.2,0-.4,0Z" fill="#000000" fill-rule="evenodd" /><path d="M65.5,151.9c-2.7.4-3.1-2.5-.7-3.7.5,1,0,2.8.7,3.7Z" fill="#000000" fill-rule="evenodd" /><path d="M64.8,148.2c-2.4,1.2-1.9,4.1.7,3.7-.9.8-.7,2.4-2.5,2.5-.7-1.4-.8-2.8-1.5-3.7.9-.4,1-.8,0-1.2,1-.7,2-1.2,3.2-1.3Z" fill="#000000" fill-rule="evenodd" /><path d="M62.3,145.2l-.3.3c-.6.7-1.3.8-2.1.6-.7-1.1-2-2-3.3-2.4-.4-.6-.8-1.2-.9-1.7,1.6,1.7,4.4,2.9,6.5,3.1Z" fill="#000000" fill-rule="evenodd" /><path d="M61.5,149.5c.9.4.8.8,0,1.2,0-.3,0-.9,0-1.2Z" fill="#000000" fill-rule="evenodd" /><path d="M60,146.1c.7.2,1.5,0,2.1-.6-.6.8-1.3,1.5-1.6,2.3,0-.6,0-1.2-.4-1.7Z" fill="#000000" fill-rule="evenodd" /><path d="M60,146.1c.3.5.5,1.1.4,1.7-.1.3-.2.5-.3.8-2.1-1.7-2-4.3-4.7-4.3-.6,0-1.3.2-1.5,1,0-1.7,1.3-2.1,2.8-1.6.8,1.1,2.1,2.1,3.3,2.4Z" fill="#000000" fill-rule="evenodd" /><path d="M60,146.1c-1.2-.2-2.4-1.3-3.3-2.4,1.2.4,2.6,1.3,3.3,2.4Z" fill="#000000" fill-rule="evenodd" /><path d="M56.7,143.8c-1.5-.5-2.9-.1-2.8,1.6-1.1,0-1.7-.6-1.3-2,1.5-.3,2.5-.6,3.2-1.3.2.5.5,1.1.9,1.7Z" fill="#000000" fill-rule="evenodd" /><path d="M54.9,158.3c-1.9,0-3.7.5-5.5,1.3,0-.6.3-1.1.8-1.4.8,0,1.5-.2,2-.7,1,0,2,.2,2.7.8Z" fill="#000000" fill-rule="evenodd" /><path d="M52.8,156.1c.7.7,1.7,1.2,2.1,2.2-.7-.6-1.7-.9-2.7-.8.3-.3.6-.8.6-1.4Z" fill="#000000" fill-rule="evenodd" /><path d="M52,161.2l.3,1.8c-5,1-10.9.9-19.8-6.2-7.2-5.7-13.9-7.5-24-7.4l15.5-8.9,1.3,1.9c-.6.4-1.1.9-1.4,1.3.5.7,1.4,1.1,2.4,1.3l-.2,1c-2-.7-4.1-.6-6,0,2.7,3.2,6.3,5.6,9.6,2.5-.3-.3-.5-.5-.8-.7l1.4-.2c1.2.7,2.4,1.3,3.6,1.6l-.4,2.1c-.7-.1-1.3-.2-1.8-.2-.6,3.1,11.9,10.6,11.7,6.7,0-.2,0-.4-.1-.7l2.6-.3c0,.2.2.4.4.5.9,1.1,2.7,1,3.3,2.5-.3.4-.6.6-.7.9-.4.9.6,1,1.7.9.5,0,1-.1,1.6-.2Z" fill="#000000" fill-rule="evenodd" /><path d="M52.8,156.1c0,.6-.3,1.1-.6,1.4-.7,0-1.4.3-2,.7-1.4,0-3-.4-4.1-1,2.3.4,4.6.1,6.7-1Z" fill="#000000" fill-rule="evenodd" /><path d="M50.3,158.1c.5-.4,1.2-.6,2-.7-.5.4-1.2.6-2,.7Z" fill="#000000" fill-rule="evenodd" /><path d="M46.1,157.1c1.1.6,2.8,1.1,4.1,1-.5.4-.8.8-.8,1.4-.6-1.4-2.4-1.4-3.3-2.5Z" fill="#000000" fill-rule="evenodd" /></svg>